<?xml version="1.0" encoding="UTF-8" standalone="no"?>
<!-- Created with Inkscape (http://www.inkscape.org/) -->

<svg
   width="258"
   height="218"
   viewBox="0 0 68.262376 57.679063"
   version="1.1"
   id="svg2951"
   xmlns="http://www.w3.org/2000/svg"
   xmlns:svg="http://www.w3.org/2000/svg">
  <defs
     id="defs2948">
    <linearGradient
       x1="0"
       y1="0"
       x2="1"
       y2="0"
       gradientUnits="userSpaceOnUse"
       gradientTransform="matrix(191.71225,0,0,-191.71225,113.22201,370.13382)"
       spreadMethod="pad"
       id="linearGradient936">
      <stop
         style="stop-opacity:1;stop-color:#5abcae"
         offset="0"
         id="stop932" />
      <stop
         style="stop-opacity:1;stop-color:#4285c6"
         offset="1"
         id="stop934" />
    </linearGradient>
    <linearGradient
       x1="0"
       y1="0"
       x2="1"
       y2="0"
       gradientUnits="userSpaceOnUse"
       gradientTransform="matrix(130.16988,0,0,-130.16988,142.91158,300.66733)"
       spreadMethod="pad"
       id="linearGradient896">
      <stop
         style="stop-opacity:1;stop-color:#5abcae"
         offset="0"
         id="stop892" />
      <stop
         style="stop-opacity:1;stop-color:#4285c6"
         offset="1"
         id="stop894" />
    </linearGradient>
    <linearGradient
       x1="0"
       y1="0"
       x2="1"
       y2="0"
       gradientUnits="userSpaceOnUse"
       gradientTransform="matrix(133.16336,0,0,-133.16336,142.06908,398.05914)"
       spreadMethod="pad"
       id="linearGradient916">
      <stop
         style="stop-opacity:1;stop-color:#5abcae"
         offset="0"
         id="stop912" />
      <stop
         style="stop-opacity:1;stop-color:#4285c6"
         offset="1"
         id="stop914" />
    </linearGradient>
  </defs>
  <g
     id="layer1">
    <g
       id="g900"
       transform="matrix(0.35277777,0,0,-0.35277777,-39.723844,146.84951)">
      <g
         id="g902">
        <g
           id="g908">
          <g
             id="g910">
            <g
               id="g3170">
              <g
                 id="g920"
                 transform="translate(0.14871064,7.5050659)">
                <g
                   id="g922">
                  <g
                     id="g928">
                    <g
                       id="g930">
                      <path
                         d="m 283.236,394.448 c 0.142,-0.264 1.723,-3.144 4.425,-6.539 v 0 C 274.268,371.81 248.849,350.273 208.695,350.273 v 0 c -44.225,0 -69.561,25.283 -79.289,37.62 v 0 c 1.499,2.118 2.766,4.534 3.499,7.256 v 0 l -8.206,2.207 c -0.884,-3.283 -3.103,-6.027 -5.356,-8.099 v 0 l -0.951,-0.616 c 0.026,-0.042 0.064,-0.097 0.092,-0.14 v 0 c -2.701,-2.287 -5.214,-3.574 -5.262,-3.598 v 0 l 1.893,-3.804 1.881,-3.809 c 0.25,0.123 3.193,1.616 6.53,4.368 v 0 c 11.205,-13.799 38.551,-39.883 85.169,-39.883 v 0 c 42.938,0 70.285,22.674 84.907,39.991 v 0 c 2.679,-2.227 5.785,-4.121 9.238,-4.999 v 0 l 2.094,8.236 c -2.136,0.543 -4.204,1.833 -6.085,3.428 v 0 c 0.004,0.004 0.008,0.009 0.01,0.013 v 0 l -0.159,0.117 c -3.817,3.287 -6.836,7.812 -7.991,9.932 v 0 z"
                         style="fill:url(#linearGradient936);stroke:none"
                         id="path938" />
                    </g>
                  </g>
                </g>
              </g>
              <g
                 id="g880"
                 transform="translate(0.97435088,8.1937684)">
                <g
                   id="g882">
                  <g
                     id="g888">
                    <g
                       id="g890">
                      <path
                         d="m 264.791,352.214 c -1.297,-19.029 -4.281,-39.252 -8.229,-56.297 v 0 c -0.085,-0.218 -0.164,-0.439 -0.216,-0.669 v 0 c -0.605,-2.66 -1.218,-5.147 -1.833,-7.548 v 0 c -0.286,-1.07 -0.575,-2.13 -0.87,-3.163 v 0 l 0.037,-0.01 c -5.65,-20.79 -11.777,-30.963 -18.662,-30.963 v 0 l -0.189,-0.003 c -0.05,0 -0.099,-0.002 -0.149,-0.005 v 0 l -0.082,-0.002 c -0.011,0.002 -0.023,0.004 -0.034,0.006 v 0 c -0.016,0.004 -0.031,0.009 -0.048,0.013 v 0 l -0.022,0.011 c -0.016,0.008 -0.033,0.017 -0.053,0.029 v 0 l -0.072,0.049 c -0.028,0.02 -0.057,0.041 -0.083,0.061 v 0 l -0.058,0.048 c -0.04,0.035 -0.08,0.073 -0.129,0.123 v 0 l -0.09,0.087 c -0.059,0.065 -0.117,0.132 -0.16,0.185 v 0 c -0.032,0.039 -0.062,0.075 -0.094,0.112 v 0 c -0.066,0.086 -0.138,0.188 -0.204,0.285 v 0 l -0.108,0.172 c -0.067,0.103 -0.133,0.21 -0.2,0.325 v 0 c -0.012,0.022 -0.024,0.042 -0.036,0.063 v 0 c -0.02,0.036 -0.038,0.071 -0.055,0.102 v 0 c -0.24,0.435 -0.453,0.887 -0.654,1.379 v 0 c -1.054,2.593 -2.383,12.037 -2.398,13.568 v 0 c 0,13.728 -11.476,27.992 -16.409,33.487 v 0 c -7.127,7.937 -18.196,17.372 -25.937,17.838 v 0 c -2.938,0.176 -5.322,-2.727 -4.049,-5.911 v 0 c 0.585,-1.463 2.095,-2.229 3.662,-2.383 v 0 c 2.025,-0.199 6.553,-2.564 12.048,-7.195 v 0 c -7.05,-5.382 -13.488,-18.224 -13.488,-35.354 v 0 c 0,-1.833 0.071,-3.695 0.212,-5.533 v 0 c 0.229,-2.995 -0.203,-5.941 -1.251,-8.518 v 0 c -0.2,-0.491 -0.413,-0.943 -0.644,-1.361 v 0 c -0.021,-0.039 -0.042,-0.079 -0.064,-0.118 v 0 c -0.013,-0.022 -0.026,-0.045 -0.039,-0.068 v 0 c -0.064,-0.111 -0.131,-0.218 -0.206,-0.335 v 0 l -0.079,-0.127 c -0.083,-0.123 -0.158,-0.229 -0.224,-0.315 v 0 c -0.03,-0.034 -0.057,-0.067 -0.078,-0.093 v 0 c -0.058,-0.071 -0.117,-0.14 -0.176,-0.205 v 0 l -0.1,-0.097 c -0.04,-0.04 -0.079,-0.078 -0.112,-0.107 v 0 l -0.064,-0.052 c -0.028,-0.022 -0.056,-0.043 -0.101,-0.074 v 0 l -0.057,-0.039 c -0.018,-0.011 -0.038,-0.022 -0.064,-0.034 v 0 l -0.008,-0.004 c -0.017,-0.004 -0.034,-0.009 -0.05,-0.014 v 0 c -0.017,-0.002 -0.034,-0.005 -0.05,-0.007 v 0 l -0.066,0.003 c -0.063,0.004 -0.126,0.005 -0.19,0.006 v 0 l -0.187,0.002 c -3.855,0 -10.914,8.121 -18.12,31.01 v 0 c -5.901,18.742 -10.766,43.917 -13.016,67.342 v 0 c -0.219,2.282 -2.253,3.959 -4.527,3.734 v 0 c -2.283,-0.218 -3.954,-2.246 -3.735,-4.528 v 0 c 2.301,-23.968 7.295,-49.778 13.36,-69.041 v 0 c 7.779,-24.706 16.27,-36.751 25.997,-36.817 v 0 c 0.022,0 0.044,-0.001 0.066,-0.001 v 0 c 0.142,-0.007 0.281,-0.011 0.414,-0.011 v 0 c 0.043,0 0.084,10e-4 0.125,0.002 v 0 c 0.128,0.001 0.257,0.007 0.388,0.014 v 0 c 0.189,0.012 0.385,0.031 0.591,0.057 v 0 c 0.116,0.011 0.225,0.026 0.317,0.043 v 0 c 0.081,0.013 0.161,0.03 0.241,0.048 v 0 c 0.218,0.043 0.442,0.097 0.682,0.165 v 0 c 0.099,0.026 0.196,0.054 0.286,0.084 v 0 c 0.366,0.118 0.706,0.252 1.043,0.411 v 0 c 0.075,0.035 0.148,0.073 0.222,0.113 v 0 c 0.25,0.127 0.495,0.266 0.715,0.405 v 0 c 0.105,0.065 0.21,0.136 0.322,0.215 v 0 c 0.195,0.133 0.387,0.274 0.581,0.429 v 0 c 0.105,0.084 0.211,0.171 0.322,0.268 v 0 c 0.176,0.152 0.348,0.314 0.54,0.503 v 0 c 0.08,0.079 0.16,0.158 0.245,0.247 v 0 c 0.184,0.194 0.363,0.399 0.562,0.639 v 0 c 0.048,0.056 0.096,0.113 0.144,0.174 v 0 c 0.21,0.264 0.419,0.55 0.655,0.899 v 0 c 0.051,0.078 0.103,0.16 0.155,0.242 v 0 l 0.021,0.034 c 0.126,0.196 0.25,0.397 0.371,0.604 v 0 c 0.041,0.066 0.082,0.134 0.128,0.215 v 0 c 0.042,0.075 0.082,0.15 0.121,0.23 v 0 c 0.378,0.693 0.726,1.429 1.033,2.186 v 0 c 1.529,3.76 2.164,8.004 1.838,12.275 v 0 c -0.125,1.629 -0.188,3.278 -0.188,4.9 v 0 c 0,18.431 7.95,27.714 11.381,29.51 v 0 c 0.631,-0.66 1.266,-1.339 1.906,-2.052 v 0 c 8.944,-9.961 14.285,-20.407 14.285,-27.94 v 0 c 0,-2.144 1.423,-12.79 3.007,-16.692 v 0 c 0.306,-0.752 0.65,-1.481 1.033,-2.185 v 0 c 0.039,-0.078 0.081,-0.158 0.129,-0.245 v 0 c 0.04,-0.07 0.079,-0.135 0.122,-0.202 v 0 c 0.121,-0.209 0.245,-0.408 0.361,-0.59 v 0 l 0.031,-0.048 c 0.052,-0.082 0.103,-0.164 0.169,-0.264 v 0 c 0.221,-0.327 0.431,-0.613 0.64,-0.877 v 0 c 0.047,-0.059 0.092,-0.113 0.141,-0.169 v 0 c 0.191,-0.233 0.377,-0.444 0.572,-0.65 v 0 c 0.078,-0.083 0.158,-0.162 0.258,-0.26 v 0 c 0.172,-0.17 0.345,-0.332 0.528,-0.49 v 0 c 0.105,-0.091 0.21,-0.178 0.318,-0.264 v 0 c 0.19,-0.153 0.383,-0.294 0.585,-0.433 v 0 c 0.105,-0.073 0.209,-0.144 0.3,-0.2 v 0 c 0.238,-0.15 0.487,-0.291 0.733,-0.415 v 0 c 0.072,-0.04 0.146,-0.078 0.225,-0.114 v 0 c 0.331,-0.157 0.67,-0.291 1.029,-0.407 v 0 c 0.091,-0.03 0.183,-0.057 0.278,-0.082 v 0 c 0.219,-0.062 0.44,-0.116 0.657,-0.161 v 0 l 0.25,-0.051 c 0.113,-0.02 0.227,-0.036 0.343,-0.047 v 0 c 0.202,-0.027 0.403,-0.046 0.599,-0.058 v 0 c 0.129,-0.007 0.257,-0.013 0.363,-0.014 v 0 c 0.049,-0.001 0.099,-0.001 0.147,-0.001 v 0 c 0.144,0 0.286,0.003 0.417,0.01 v 0 c 0.018,0 0.037,0.001 0.055,0.001 v 0 c 6.861,0.014 12.81,4.462 17.68,13.22 v 0 c 3.56,6.402 6.821,15.493 9.913,27.631 v 0 c 5.015,18.922 8.858,43.065 10.389,65.534 v 0 c 0.155,2.287 -1.572,4.268 -3.859,4.423 v 0 c -0.098,0.007 -0.196,0.011 -0.293,0.011 v 0 c -2.156,0 -3.98,-1.681 -4.129,-3.869 m -81.943,-98.65 c 0,0 0,0 0,0"
                         style="fill:url(#linearGradient896);stroke:none"
                         id="path898" />
                    </g>
                  </g>
                </g>
              </g>
              <path
                 d="m 231.588,414.464 c -8.957,-0.54 -17.943,-4.925 -22.279,-7.042 v 0 c -0.217,-0.105 -0.442,-0.215 -0.658,-0.32 v 0 c -0.217,0.105 -0.441,0.215 -0.657,0.32 v 0 c -4.338,2.117 -13.324,6.502 -22.281,7.042 v 0 c -3.92,0.607 -8.078,1.075 -12.07,0.527 v 0 c -10.343,-0.034 -18.353,-2.832 -23.806,-8.317 v 0 c -5.155,-5.186 -7.768,-12.466 -7.768,-21.64 v 0 c 0,-2.444 2.114,-4.394 4.613,-4.124 v 0 c 2.109,0.227 3.681,2.141 3.688,4.261 v 0 c 0.024,6.836 1.824,12.101 5.354,15.65 v 0 c 3.871,3.895 9.964,5.87 18.109,5.87 v 0 h 0.422 l 0.31,0.047 c 3.048,0.461 6.641,0.029 10.07,-0.507 v 0 l 0.209,-0.033 0.211,-0.011 c 7.303,-0.389 15.325,-4.286 19.229,-6.191 v 0 l -0.016,-0.034 c 1.86,-0.907 2.709,-1.322 3.622,-1.483 v 0 l 0.718,-0.126 0.043,0.008 0.043,-0.008 0.717,0.126 c 0.914,0.161 1.762,0.576 3.623,1.483 v 0 l -0.017,0.034 c 3.906,1.905 11.926,5.802 19.229,6.191 v 0 l 0.211,0.011 0.209,0.033 c 3.429,0.536 7.023,0.968 10.071,0.507 v 0 l 0.309,-0.047 h 0.423 c 8.145,0 14.237,-1.975 18.108,-5.87 v 0 c 3.53,-3.549 5.331,-8.814 5.354,-15.65 v 0 c 0.008,-2.12 1.58,-4.034 3.689,-4.261 v 0 c 2.499,-0.27 4.613,1.68 4.613,4.124 v 0 c 0,9.174 -2.614,16.454 -7.769,21.64 v 0 c -5.453,5.485 -13.462,8.283 -23.805,8.317 v 0 c -1.244,0.171 -2.504,0.243 -3.768,0.243 v 0 c -2.793,0 -5.604,-0.352 -8.303,-0.77"
                 style="fill:url(#linearGradient916);stroke:none"
                 id="path918" />
            </g>
          </g>
        </g>
      </g>
    </g>
  </g>
</svg>
