<?xml version="1.0" encoding="UTF-8" standalone="no"?>
<!-- Created with Inkscape (http://www.inkscape.org/) -->

<svg
   width="15.976607mm"
   height="8.8764486mm"
   viewBox="0 0 15.976607 8.8764486"
   version="1.1"
   id="svg610"
   xmlns="http://www.w3.org/2000/svg"
   xmlns:svg="http://www.w3.org/2000/svg">
  <defs
     id="defs607" />
  <g
     id="layer1"
     transform="translate(-46.292007,-79.275169)">
    <rect
       width="15.976607"
       height="8.8764486"
       rx="0.79883039"
       fill="#25d366"
       id="rect2"
       x="46.292007"
       y="79.275169"
       style="font-variation-settings:normal;vector-effect:none;fill:#25d366;fill-opacity:1;stroke-width:0.15691;stroke-linecap:butt;stroke-linejoin:miter;stroke-miterlimit:4;stroke-dasharray:none;stroke-dashoffset:0;stroke-opacity:1;-inkscape-stroke:none;stop-color:#000000" />
    <path
       fill-rule="evenodd"
       clip-rule="evenodd"
       d="m 54.543369,79.740383 c 0.622308,0.0031 1.222901,0.25437 1.672149,0.697203 0.46008,0.453549 0.725203,1.061694 0.748386,1.716617 0.02264,0.639577 -0.194494,1.26783 -0.606356,1.747626 -0.451692,0.526229 -1.080022,0.828463 -1.758654,0.848492 a 2.4230566,2.4916341 0 0 1 -0.0697,0.001 c -0.365651,0 -0.727931,-0.0848 -1.056042,-0.247147 l -1.27539,0.291676 a 0.01873153,0.01926167 0 0 1 -0.02213,-0.02146 l 0.215438,-1.326092 c -0.183868,-0.345467 -0.286505,-0.734695 -0.297569,-1.130591 -0.01863,-0.668999 0.217162,-1.305375 0.663966,-1.79197 0.463271,-0.504534 1.095923,-0.785389 1.773834,-0.785389 z m -0.01356,0.434737 c -0.01948,0 -0.03893,2.91e-4 -0.05851,8.73e-4 -1.109946,0.03273 -1.987034,0.987927 -1.95518,2.129261 0.0097,0.348509 0.105184,0.690615 0.276109,0.989303 l 0.0371,0.06474 -0.15963,0.899847 0.865973,-0.210211 0.06538,0.035 c 0.285347,0.152665 0.605043,0.232675 0.928085,0.232675 0.0192,0 0.03842,-2.65e-4 0.05761,-8.47e-4 1.109945,-0.03273 1.987034,-0.987901 1.955206,-2.12926 -0.03129,-1.121199 -0.928292,-2.011389 -2.012147,-2.011389 z m -0.842353,0.860451 c 0.04073,0.0013 0.08154,0.0025 0.117098,0.0052 0.04353,0.0032 0.09168,0.0068 0.134363,0.113057 0.05064,0.126153 0.160144,0.441087 0.174501,0.473022 0.01433,0.03194 0.02344,0.069 0.0018,0.110384 -0.02164,0.04133 -0.03263,0.06723 -0.06422,0.102976 -0.03165,0.0358 -0.06672,0.07998 -0.09499,0.107288 -0.03162,0.03043 -0.06448,0.0635 -0.03067,0.127556 0.03378,0.06411 0.150316,0.27395 0.327082,0.446484 0.227197,0.221721 0.409392,0.294879 0.48177,0.329592 0.02609,0.01254 0.04781,0.01847 0.06677,0.01847 0.02601,0 0.04685,-0.01119 0.06672,-0.03191 0.03808,-0.03969 0.152657,-0.177191 0.200901,-0.240427 0.02524,-0.0331 0.04809,-0.04482 0.07292,-0.04482 0.01987,0 0.04099,0.0075 0.06561,0.01762 0.05542,0.02275 0.351448,0.184468 0.411656,0.217884 0.06021,0.03336 0.100476,0.0504 0.114988,0.0771 0.01451,0.0268 0.01071,0.152718 -0.04462,0.298027 -0.05535,0.145309 -0.309173,0.279135 -0.421588,0.286067 -0.03291,0.002 -0.06528,0.0068 -0.107449,0.0068 -0.10184,0 -0.260698,-0.0276 -0.621511,-0.187378 -0.613869,-0.271833 -0.986673,-0.9398 -1.016005,-0.982716 -0.02925,-0.04299 -0.239445,-0.349065 -0.230182,-0.658654 0.0092,-0.309562 0.171749,-0.456803 0.229693,-0.518001 0.05553,-0.05868 0.119156,-0.07366 0.160247,-0.07366 z"
       fill="#ffffff"
       id="path4"
       style="stroke-width:0.260917" />
    <path
       d="m 49.067824,87.061624 0.592821,-2.26695 h -0.475492 l -0.361251,1.5621 h -0.0062 l -0.376689,-1.5621 h -0.453879 l -0.382865,1.54305 h -0.0062 l -0.3489,-1.54305 h -0.484756 l 0.583559,2.26695 h 0.490931 l 0.367426,-1.54305 h 0.0062 l 0.373602,1.54305 z m 0.769922,-2.26695 v 2.26695 h 0.438441 v -0.860425 c 0,-0.167217 0.02676,-0.286809 0.08028,-0.358775 0.05352,-0.07408 0.139972,-0.111125 0.25936,-0.111125 0.104979,0 0.178052,0.03387 0.21922,0.1016 0.04117,0.06562 0.06175,0.166158 0.06175,0.301625 v 0.9271 h 0.438442 v -1.00965 c 0,-0.1016 -0.0093,-0.193675 -0.02779,-0.276225 -0.01647,-0.08467 -0.04631,-0.155575 -0.08954,-0.212725 -0.04323,-0.05927 -0.10292,-0.104775 -0.179081,-0.136525 -0.0741,-0.03387 -0.169819,-0.0508 -0.287148,-0.0508 -0.08234,0 -0.166732,0.02222 -0.253185,0.06668 -0.08645,0.04233 -0.157468,0.111125 -0.213045,0.206375 h -0.0093 v -0.854075 z m 1.811657,1.1303 c 0.0062,-0.105834 0.03191,-0.193675 0.07719,-0.263525 0.04528,-0.06985 0.10292,-0.125942 0.172906,-0.168275 0.06999,-0.04233 0.148206,-0.07197 0.234659,-0.0889 0.08851,-0.01905 0.177023,-0.02858 0.265535,-0.02858 0.08028,0 0.161585,0.0063 0.243921,0.01905 0.08234,0.01058 0.157469,0.03281 0.225396,0.06668 0.06793,0.03387 0.123505,0.08149 0.166731,0.142875 0.04323,0.05927 0.06484,0.138641 0.06484,0.238125 v 0.854075 c 0,0.07408 0.0041,0.144991 0.01235,0.212725 0.0082,0.06773 0.02264,0.118533 0.04323,0.1524 h -0.444616 c -0.0082,-0.0254 -0.01544,-0.0508 -0.02161,-0.0762 -0.0041,-0.02739 -0.0072,-0.05492 -0.0093,-0.08255 -0.06999,0.07408 -0.152322,0.125941 -0.247009,0.155575 -0.09469,0.02963 -0.191432,0.04445 -0.290236,0.04445 -0.07616,0 -0.147176,-0.0095 -0.213045,-0.02858 -0.06587,-0.01905 -0.123505,-0.04868 -0.172907,-0.0889 -0.0494,-0.04022 -0.08851,-0.09102 -0.117329,-0.1524 -0.02676,-0.06138 -0.04014,-0.134409 -0.04014,-0.219075 0,-0.09313 0.01544,-0.169334 0.04631,-0.2286 0.03294,-0.06138 0.0741,-0.110067 0.123505,-0.14605 0.05146,-0.03598 0.109096,-0.06244 0.172906,-0.07937 0.06587,-0.01905 0.131739,-0.03387 0.197608,-0.04445 0.06587,-0.01058 0.130709,-0.01905 0.194519,-0.0254 0.06381,-0.0064 0.120417,-0.01588 0.169819,-0.02858 0.0494,-0.0127 0.08851,-0.03069 0.117329,-0.05398 0.02882,-0.0254 0.0422,-0.06138 0.04014,-0.10795 0,-0.04868 -0.0082,-0.08678 -0.0247,-0.1143 -0.01441,-0.02963 -0.03499,-0.05186 -0.06175,-0.06668 -0.0247,-0.01693 -0.05455,-0.02752 -0.08954,-0.03175 -0.03294,-0.0063 -0.06896,-0.0095 -0.108067,-0.0095 -0.08645,0 -0.15438,0.01905 -0.203782,0.05715 -0.0494,0.0381 -0.07822,0.1016 -0.08645,0.1905 z m 1.012738,0.333375 c -0.01853,0.01693 -0.0422,0.03069 -0.07101,0.04127 -0.02676,0.0085 -0.05661,0.01587 -0.08954,0.02223 -0.03088,0.0063 -0.06381,0.01164 -0.0988,0.01587 -0.03499,0.0042 -0.06999,0.0095 -0.104979,0.01587 -0.03293,0.0064 -0.06587,0.01482 -0.0988,0.0254 -0.03088,0.01058 -0.05866,0.0254 -0.08337,0.04445 -0.02264,0.01693 -0.04117,0.03916 -0.05558,0.06668 -0.01441,0.02752 -0.02161,0.06244 -0.02161,0.104775 0,0.04022 0.0072,0.07408 0.02161,0.1016 0.01387,0.02689 0.03402,0.04981 0.05866,0.06668 0.0247,0.01482 0.05352,0.0254 0.08645,0.03175 0.03294,0.0063 0.0669,0.0095 0.101891,0.0095 0.08645,0 0.153352,-0.01482 0.200695,-0.04445 0.04734,-0.02963 0.08234,-0.06456 0.104979,-0.104775 0.02264,-0.04233 0.03602,-0.08467 0.04014,-0.127 0.0062,-0.04233 0.0093,-0.0762 0.0093,-0.1016 z m 1.334621,-0.8382 v -0.492125 h -0.438441 v 0.492125 h -0.265535 v 0.301625 h 0.265535 v 0.968375 c 0,0.08255 0.01338,0.149225 0.04014,0.200025 0.02676,0.0508 0.06278,0.08996 0.108066,0.117475 0.04734,0.02752 0.100862,0.04551 0.160556,0.05397 0.06175,0.01058 0.126592,0.01587 0.19452,0.01587 0.04323,0 0.08748,-0.0011 0.132767,-0.0032 0.04528,-0.0021 0.08645,-0.0063 0.123505,-0.0127 v -0.34925 c -0.02059,0.0042 -0.0422,0.0074 -0.06484,0.0095 -0.02264,0.0021 -0.04631,0.0032 -0.07101,0.0032 -0.0741,0 -0.123505,-0.0127 -0.148205,-0.0381 -0.0247,-0.0254 -0.03705,-0.0762 -0.03705,-0.1524 v -0.8128 h 0.321112 v -0.301625 z m 0.869164,1.108075 h -0.416828 c 0.0041,0.110066 0.02779,0.202141 0.07102,0.276225 0.04528,0.07197 0.101891,0.130175 0.169819,0.174625 0.06999,0.04445 0.149234,0.0762 0.237746,0.09525 0.08851,0.01905 0.179081,0.02858 0.27171,0.02858 0.09057,0 0.179081,-0.0095 0.265535,-0.02858 0.08851,-0.01693 0.166731,-0.04762 0.234658,-0.09207 0.06793,-0.04445 0.122476,-0.102659 0.163644,-0.174625 0.04323,-0.07408 0.06484,-0.1651 0.06484,-0.27305 0,-0.0762 -0.01441,-0.1397 -0.04323,-0.1905 -0.02882,-0.05292 -0.0669,-0.09631 -0.114241,-0.130175 -0.04734,-0.03598 -0.101892,-0.06456 -0.163644,-0.08572 -0.05969,-0.02117 -0.121446,-0.03916 -0.185257,-0.05398 -0.06175,-0.01482 -0.122475,-0.02858 -0.182169,-0.04127 -0.05969,-0.0127 -0.113213,-0.02646 -0.160556,-0.04127 -0.04528,-0.01693 -0.08234,-0.0381 -0.111154,-0.0635 -0.02882,-0.0254 -0.04323,-0.05821 -0.04323,-0.09842 0,-0.03387 0.0082,-0.06033 0.0247,-0.07937 0.01647,-0.02117 0.03602,-0.03704 0.05867,-0.04763 0.0247,-0.01058 0.05146,-0.01693 0.08028,-0.01905 0.02882,-0.0042 0.05558,-0.0063 0.08028,-0.0063 0.07822,0 0.146147,0.01587 0.203782,0.04762 0.05763,0.02963 0.08954,0.08784 0.09572,0.174625 h 0.416828 c -0.0082,-0.1016 -0.03396,-0.185209 -0.07719,-0.250825 -0.04117,-0.06773 -0.09366,-0.121709 -0.157469,-0.161925 -0.06381,-0.04022 -0.136884,-0.06879 -0.21922,-0.08573 -0.08028,-0.01693 -0.163644,-0.0254 -0.250097,-0.0254 -0.08645,0 -0.170848,0.0085 -0.253185,0.0254 -0.08234,0.01482 -0.156439,0.04233 -0.222308,0.08255 -0.06587,0.0381 -0.119387,0.09102 -0.160555,0.15875 -0.03911,0.06773 -0.05866,0.154516 -0.05866,0.26035 0,0.07197 0.01441,0.13335 0.04323,0.18415 0.02882,0.04868 0.0669,0.08996 0.114242,0.123825 0.04734,0.03175 0.100862,0.05821 0.160556,0.07937 0.06175,0.01905 0.124534,0.03598 0.188345,0.0508 0.156439,0.03387 0.277885,0.06773 0.364338,0.1016 0.08851,0.03387 0.132767,0.08467 0.132767,0.1524 0,0.04022 -0.0093,0.07408 -0.02779,0.1016 -0.01853,0.0254 -0.0422,0.04657 -0.07101,0.0635 -0.02676,0.01482 -0.05764,0.02646 -0.09263,0.03493 -0.03293,0.0063 -0.06484,0.0095 -0.09572,0.0095 -0.04323,0 -0.08542,-0.0053 -0.126592,-0.01587 -0.03911,-0.01058 -0.0741,-0.02646 -0.104979,-0.04762 -0.03088,-0.02328 -0.05661,-0.05186 -0.07719,-0.08573 -0.01853,-0.03598 -0.02779,-0.07832 -0.02779,-0.127 z m 1.92101,-0.3429 0.287148,-0.83185 h 0.0062 l 0.277885,0.83185 z m 0.04631,-1.39065 -0.833656,2.26695 h 0.487843 l 0.172907,-0.504825 h 0.824393 l 0.166731,0.504825 h 0.503281 l -0.824393,-2.26695 z m 2.271198,1.971675 c -0.06999,0 -0.12968,-0.01482 -0.179082,-0.04445 -0.0494,-0.02963 -0.08954,-0.06773 -0.120417,-0.1143 -0.02882,-0.04868 -0.05043,-0.104775 -0.06484,-0.168275 -0.01235,-0.0635 -0.01853,-0.128059 -0.01853,-0.193675 0,-0.06773 0.0062,-0.13335 0.01853,-0.19685 0.01235,-0.0635 0.03293,-0.119592 0.06175,-0.168275 0.03088,-0.04868 0.06999,-0.08784 0.117329,-0.117475 0.0494,-0.03175 0.110125,-0.04762 0.182169,-0.04762 0.06999,0 0.128651,0.01587 0.175994,0.04762 0.0494,0.02963 0.08954,0.06985 0.120417,0.12065 0.03088,0.04868 0.05249,0.104775 0.06484,0.168275 0.01441,0.0635 0.02161,0.128058 0.02161,0.193675 0,0.06562 -0.0062,0.130175 -0.01853,0.193675 -0.01235,0.0635 -0.03396,0.119591 -0.06484,0.168275 -0.02882,0.04657 -0.06793,0.08467 -0.117329,0.1143 -0.04734,0.02963 -0.107038,0.04445 -0.179082,0.04445 z m -0.805868,-1.3462 v 2.21615 h 0.438442 v -0.777875 h 0.0062 c 0.05352,0.08043 0.121446,0.141816 0.203783,0.18415 0.08439,0.04022 0.175994,0.06033 0.274797,0.06033 0.11733,0 0.219221,-0.02328 0.305674,-0.06985 0.08851,-0.04657 0.161585,-0.109009 0.219221,-0.187325 0.05969,-0.07832 0.103949,-0.168275 0.132767,-0.269875 0.02882,-0.1016 0.04323,-0.207434 0.04323,-0.3175 0,-0.116417 -0.01441,-0.227542 -0.04323,-0.333375 -0.02882,-0.10795 -0.07307,-0.202142 -0.132767,-0.282575 -0.05969,-0.08043 -0.134826,-0.144992 -0.225396,-0.193675 -0.09057,-0.04868 -0.198637,-0.07303 -0.324199,-0.07303 -0.0988,0 -0.189374,0.02011 -0.271711,0.06032 -0.08234,0.04022 -0.150264,0.104775 -0.203782,0.193675 h -0.0062 v -0.20955 z m 2.693172,1.3462 c -0.06999,0 -0.12968,-0.01482 -0.179082,-0.04445 -0.0494,-0.02963 -0.08954,-0.06773 -0.120417,-0.1143 -0.02882,-0.04868 -0.05043,-0.104775 -0.06484,-0.168275 -0.01235,-0.0635 -0.01853,-0.128059 -0.01853,-0.193675 0,-0.06773 0.0062,-0.13335 0.01853,-0.19685 0.01235,-0.0635 0.03293,-0.119592 0.06175,-0.168275 0.03088,-0.04868 0.06999,-0.08784 0.117329,-0.117475 0.0494,-0.03175 0.110125,-0.04762 0.182169,-0.04762 0.06999,0 0.128651,0.01587 0.175994,0.04762 0.0494,0.02963 0.08954,0.06985 0.120417,0.12065 0.03088,0.04868 0.05249,0.104775 0.06484,0.168275 0.01441,0.0635 0.02161,0.128058 0.02161,0.193675 0,0.06562 -0.0062,0.130175 -0.01853,0.193675 -0.01235,0.0635 -0.03396,0.119591 -0.06484,0.168275 -0.02882,0.04657 -0.06793,0.08467 -0.117329,0.1143 -0.04734,0.02963 -0.107038,0.04445 -0.179082,0.04445 z m -0.805867,-1.3462 v 2.21615 h 0.438441 v -0.777875 h 0.0062 c 0.05352,0.08043 0.121447,0.141816 0.203783,0.18415 0.0844,0.04022 0.175994,0.06033 0.274797,0.06033 0.11733,0 0.219221,-0.02328 0.305674,-0.06985 0.08851,-0.04657 0.161586,-0.109009 0.219221,-0.187325 0.05969,-0.07832 0.10395,-0.168275 0.132767,-0.269875 0.02882,-0.1016 0.04323,-0.207434 0.04323,-0.3175 0,-0.116417 -0.01441,-0.227542 -0.04323,-0.333375 -0.02882,-0.10795 -0.07307,-0.202142 -0.132767,-0.282575 -0.05969,-0.08043 -0.134826,-0.144992 -0.225396,-0.193675 -0.09057,-0.04868 -0.198637,-0.07303 -0.324199,-0.07303 -0.0988,0 -0.189374,0.02011 -0.27171,0.06032 -0.08234,0.04022 -0.150264,0.104775 -0.203783,0.193675 h -0.0062 v -0.20955 z"
       fill="#ffffff"
       id="path6"
       style="display:inline;stroke-width:0.260917" />
  </g>
</svg>
